<svg xmlns="http://www.w3.org/2000/svg" viewBox="0 0 640 96" fill="none" stroke="#000" stroke-width="5" stroke-linecap="round" stroke-linejoin="round"><path d="M53 83c-25 0-36-24-25-42 7-11 17-17 17-29 17 10 23 24 19 38 9-7 11-15 11-22 18 15 16 55-22 55Z"/><path d="M145 72c37-48 28 24 67-34m-67 0c39 58 29-20 67 34"/><path d="M263 48c14-20 28-20 42 0-14 20-28 20-42 0Zm54 0c14-20 28-20 42 0-14 20-28 20-42 0Z"/><path d="M401 20c-20 18-20 42 0 60m25-60c20 18 20 42 0 60"/><path d="m506 13 7 23 23 7-23 7-7 23-7-23-23-7 23-7Zm74 20 5 15 15 5-15 5-5 15-5-15-15-5 15-5Z"/><path d="M621 24v47"/></svg>
