<svg xmlns="http://www.w3.org/2000/svg" viewBox="0 0 640 96" fill="none" stroke="#000" stroke-width="5" stroke-linecap="round" stroke-linejoin="round"><path d="M18 54c13-36 28 30 42-5s29 31 43-5"/><circle cx="158" cy="31" r="9"/><circle cx="190" cy="54" r="17"/><circle cx="151" cy="69" r="6"/><path d="M283 47c0-18 28-18 28 2 0 26-42 31-52 5-13-34 39-56 65-24 30 37-18 67-57 52"/><path d="m391 16 8 21 22-9-12 20 19 13-23 1 2 23-16-17-16 17 2-23-23-1 19-13-12-20 22 9Z"/><path d="m493 23 50-11 13 56-50 11Z"/><path d="m594 21 7 19 18-8-10 17 16 12-20-1-2 20-9-18-18 9 11-17-15-13 20 2Z"/></svg>
